<?xml version="1.0" encoding="UTF-8"?>
<svg width="302px" height="152px" viewBox="0 0 302 152" version="1.1" xmlns="http://www.w3.org/2000/svg" xmlns:xlink="http://www.w3.org/1999/xlink">
    <!-- Generator: Sketch 47.1 (45422) - http://www.bohemiancoding.com/sketch -->
    <title>logo-sauvc</title>
    <desc>Created with Sketch.</desc>
    <defs></defs>
    <g id="Page-1" stroke="none" stroke-width="1" fill="none" fill-rule="evenodd">
        <g id="logo-sauvc">
            <rect id="Rectangle" fill="#F8C86C" x="0" y="28" width="302" height="100" rx="50"></rect>
            <path d="M58.68,95.72 C56.1999876,95.72 53.6500131,95.2700045 51.03,94.37 C48.4099869,93.4699955 46.0400106,92.0600096 43.92,90.14 L49.8,83.06 C51.200007,84.1800056 52.7099919,85.0899965 54.33,85.79 C55.9500081,86.4900035 57.4799928,86.84 58.92,86.84 C60.4800078,86.84 61.6099965,86.6000024 62.31,86.12 C63.0100035,85.6399976 63.36,84.9600044 63.36,84.08 C63.36,83.5999976 63.2400012,83.2000016 63,82.88 C62.7599988,82.5599984 62.4100023,82.2600014 61.95,81.98 C61.4899977,81.6999986 60.9400032,81.4300013 60.3,81.17 C59.6599968,80.9099987 58.9200042,80.6200016 58.08,80.3 L53.22,78.26 C52.1799948,77.859998 51.1800048,77.3300033 50.22,76.67 C49.2599952,76.0099967 48.4200036,75.2300045 47.7,74.33 C46.9799964,73.4299955 46.4100021,72.4000058 45.99,71.24 C45.5699979,70.0799942 45.36,68.800007 45.36,67.4 C45.36,65.7199916 45.7199964,64.1500073 46.44,62.69 C47.1600036,61.2299927 48.1599936,59.9500055 49.44,58.85 C50.7200064,57.7499945 52.2499911,56.8800032 54.03,56.24 C55.8100089,55.5999968 57.7599894,55.28 59.88,55.28 C62.1200112,55.28 64.3899885,55.6999958 66.69,56.54 C68.9900115,57.3800042 71.039991,58.699991 72.84,60.5 L67.68,66.98 C66.3599934,66.0599954 65.0900061,65.3600024 63.87,64.88 C62.6499939,64.3999976 61.3200072,64.16 59.88,64.16 C58.5999936,64.16 57.6000036,64.3799978 56.88,64.82 C56.1599964,65.2600022 55.8,65.9199956 55.8,66.8 C55.8,67.7200046 56.3099949,68.4299975 57.33,68.93 C58.3500051,69.4300025 59.759991,70.0199966 61.56,70.7 L66.3,72.56 C68.7400122,73.5200048 70.6199934,74.8599914 71.94,76.58 C73.2600066,78.3000086 73.92,80.5199864 73.92,83.24 C73.92,84.8800082 73.5800034,86.4599924 72.9,87.98 C72.2199966,89.5000076 71.2300065,90.8299943 69.93,91.97 C68.6299935,93.1100057 67.0400094,94.0199966 65.16,94.7 C63.2799906,95.3800034 61.1200122,95.72 58.68,95.72 Z M100.24,76.04 L99.58,78.74 L106.78,78.74 L106.12,76.04 C105.639998,74.1599906 105.160002,72.120011 104.68,69.92 C104.199998,67.719989 103.720002,65.6400098 103.24,63.68 L103,63.68 C102.559998,65.68001 102.110002,67.7699891 101.65,69.95 C101.189998,72.1300109 100.720002,74.1599906 100.24,76.04 Z M85.24,95 L97.12,56 L109.6,56 L121.48,95 L110.56,95 L108.64,86.72 L97.72,86.72 L95.8,95 L85.24,95 Z M150.56,95.72 C145.079973,95.72 141.010013,94.1300159 138.35,90.95 C135.689987,87.7699841 134.36,82.8400334 134.36,76.16 L134.36,56 L144.68,56 L144.68,77.36 C144.68,80.8400174 145.149995,83.2899929 146.09,84.71 C147.030005,86.1300071 148.51999,86.84 150.56,86.84 C152.60001,86.84 154.109995,86.1300071 155.09,84.71 C156.070005,83.2899929 156.56,80.8400174 156.56,77.36 L156.56,56 L166.52,56 L166.52,76.16 C166.52,82.8400334 165.220013,87.7699841 162.62,90.95 C160.019987,94.1300159 156.000027,95.72 150.56,95.72 Z M190.92,95 L179.4,56 L190.32,56 L194.4,73.04 C194.960003,75.1200104 195.439998,77.1699899 195.84,79.19 C196.240002,81.2100101 196.719997,83.2799894 197.28,85.4 L197.52,85.4 C198.080003,83.2799894 198.569998,81.2100101 198.99,79.19 C199.410002,77.1699899 199.879997,75.1200104 200.4,73.04 L204.36,56 L214.92,56 L203.4,95 L190.92,95 Z M244.96,95.72 C242.479988,95.72 240.110011,95.3100041 237.85,94.49 C235.589989,93.6699959 233.610009,92.4300083 231.91,90.77 C230.209992,89.1099917 228.860005,87.0300125 227.86,84.53 C226.859995,82.0299875 226.36,79.1200166 226.36,75.8 C226.36,72.5199836 226.879995,69.6100127 227.92,67.07 C228.960005,64.5299873 230.349991,62.3900087 232.09,60.65 C233.830009,58.9099913 235.829989,57.5800046 238.09,56.66 C240.350011,55.7399954 242.719988,55.28 245.2,55.28 C247.800013,55.28 250.11999,55.7899949 252.16,56.81 C254.20001,57.8300051 255.919993,59.039993 257.32,60.44 L251.92,67.04 C250.959995,66.1999958 249.970005,65.5100027 248.95,64.97 C247.929995,64.4299973 246.760007,64.16 245.44,64.16 C244.279994,64.16 243.190005,64.4199974 242.17,64.94 C241.149995,65.4600026 240.250004,66.1999952 239.47,67.16 C238.689996,68.1200048 238.070002,69.299993 237.61,70.7 C237.149998,72.100007 236.92,73.6799912 236.92,75.44 C236.92,79.1200184 237.689992,81.9399902 239.23,83.9 C240.770008,85.8600098 242.799987,86.84 245.32,86.84 C246.840008,86.84 248.189994,86.5100033 249.37,85.85 C250.550006,85.1899967 251.559996,84.4000046 252.4,83.48 L257.8,89.96 C256.119992,91.8800096 254.190011,93.3199952 252.01,94.28 C249.829989,95.2400048 247.480013,95.72 244.96,95.72 Z" id="SAUVC" fill="#1C455D"></path>
            <path d="M302,77.9790031 C302,64.5080031 296.663,52.2910031 288,43.3000031 L288,112.658003 C296.663,103.667003 302,91.4500031 302,77.9790031" id="Fill-1" fill="#F59A63"></path>
            <path d="M14,77.9790031 C14,64.5080031 8.663,52.2910031 0,43.3000031 L0,112.658003 C8.663,103.667003 14,91.4500031 14,77.9790031" id="Fill-1-Copy" fill="#F59A63" transform="translate(7.000000, 77.979003) scale(-1, 1) translate(-7.000000, -77.979003) "></path>
            <path d="M111,0 L191,0 L191,0 C196.522847,-1.01453063e-15 201,4.4771525 201,10 L201,28 L101,28 L101,10 L101,10 C101,4.4771525 105.477153,1.01453063e-15 111,0 Z" id="Rectangle-2" fill="#F59A63"></path>
            <rect id="Rectangle-4" fill="#1C455D" x="268" y="112" width="20" height="40"></rect>
            <path d="M194,112 L244.346763,112 L244.346763,112 C251.238117,112 257.919367,114.372565 263.267324,118.718841 L279.609375,132 L263.267324,145.281159 L263.267324,145.281159 C257.919367,149.627435 251.238117,152 244.346763,152 L194,152 L194,152 C182.954305,152 174,143.045695 174,132 L174,132 L174,132 C174,120.954305 182.954305,112 194,112 Z" id="Rectangle-3" fill="#1C455D"></path>
            <path d="M191.864,139 L191.864,136.648 C192.760004,135.815996 193.595996,135.032004 194.372,134.296 C195.148004,133.559996 195.823997,132.868003 196.4,132.22 C196.976003,131.571997 197.427998,130.956003 197.756,130.372 C198.084002,129.787997 198.248,129.240003 198.248,128.728 C198.248,128.039997 198.076002,127.532002 197.732,127.204 C197.387998,126.875998 196.936003,126.712 196.376,126.712 C195.863997,126.712 195.412002,126.859999 195.02,127.156 C194.627998,127.452001 194.248002,127.783998 193.88,128.152 L191.672,125.944 C192.072002,125.527998 192.463998,125.164002 192.848,124.852 C193.232002,124.539998 193.635998,124.284001 194.06,124.084 C194.484002,123.883999 194.931998,123.736 195.404,123.64 C195.876002,123.544 196.391997,123.496 196.952,123.496 C197.720004,123.496 198.423997,123.615999 199.064,123.856 C199.704003,124.096001 200.255998,124.431998 200.72,124.864 C201.184002,125.296002 201.543999,125.819997 201.8,126.436 C202.056001,127.052003 202.184,127.735996 202.184,128.488 C202.184,129.096003 202.052001,129.715997 201.788,130.348 C201.523999,130.980003 201.184002,131.607997 200.768,132.232 C200.351998,132.856003 199.884003,133.463997 199.364,134.056 C198.843997,134.648003 198.328003,135.207997 197.816,135.736 C198.200002,135.688 198.635998,135.644 199.124,135.604 C199.612002,135.564 200.023998,135.544 200.36,135.544 L202.904,135.544 L202.904,139 L191.864,139 Z M214.04,139.288 C213.191996,139.288 212.424003,139.116002 211.736,138.772 C211.047996,138.427998 210.452002,137.920003 209.948,137.248 C209.443997,136.575997 209.056001,135.744005 208.784,134.752 C208.511999,133.759995 208.376,132.616006 208.376,131.32 C208.376,130.023994 208.511999,128.884005 208.784,127.9 C209.056001,126.915995 209.443997,126.100003 209.948,125.452 C210.452002,124.803997 211.047996,124.316002 211.736,123.988 C212.424003,123.659998 213.191996,123.496 214.04,123.496 C214.872004,123.496 215.635996,123.659998 216.332,123.988 C217.028003,124.316002 217.627997,124.807997 218.132,125.464 C218.636002,126.120003 219.023999,126.935995 219.296,127.912 C219.568001,128.888005 219.704,130.023994 219.704,131.32 C219.704,132.616006 219.568001,133.759995 219.296,134.752 C219.023999,135.744005 218.636002,136.575997 218.132,137.248 C217.627997,137.920003 217.028003,138.427998 216.332,138.772 C215.635996,139.116002 214.872004,139.288 214.04,139.288 Z M214.04,136.12 C214.280001,136.12 214.507999,136.060001 214.724,135.94 C214.940001,135.819999 215.127999,135.584002 215.288,135.232 C215.448001,134.879998 215.575999,134.392003 215.672,133.768 C215.768,133.143997 215.816,132.328005 215.816,131.32 C215.816,130.311995 215.768,129.504003 215.672,128.896 C215.575999,128.287997 215.448001,127.816002 215.288,127.48 C215.127999,127.143998 214.940001,126.924001 214.724,126.82 C214.507999,126.715999 214.280001,126.664 214.04,126.664 C213.799999,126.664 213.572001,126.715999 213.356,126.82 C213.139999,126.924001 212.952001,127.143998 212.792,127.48 C212.631999,127.816002 212.504,128.287997 212.408,128.896 C212.311999,129.504003 212.264,130.311995 212.264,131.32 C212.264,132.328005 212.311999,133.143997 212.408,133.768 C212.504,134.392003 212.631999,134.879998 212.792,135.232 C212.952001,135.584002 213.139999,135.819999 213.356,135.94 C213.572001,136.060001 213.799999,136.12 214.04,136.12 Z M225.704,139 L225.704,135.688 L228.968,135.688 L228.968,127.816 L226.088,127.816 L226.088,125.272 C226.952004,125.095999 227.687997,124.896001 228.296,124.672 C228.904003,124.447999 229.495997,124.152002 230.072,123.784 L233.096,123.784 L233.096,135.688 L235.832,135.688 L235.832,139 L225.704,139 Z M247.112,139.288 C246.343996,139.288 245.628003,139.188001 244.964,138.988 C244.299996,138.787999 243.724002,138.504002 243.236,138.136 C242.747997,137.767998 242.368001,137.328003 242.096,136.816 C241.823998,136.303997 241.688,135.736003 241.688,135.112 C241.688,134.215996 241.923997,133.488003 242.396,132.928 C242.868002,132.367997 243.463996,131.896002 244.184,131.512 L244.184,131.416 C243.575997,130.951998 243.088002,130.436003 242.72,129.868 C242.351998,129.299997 242.168,128.616004 242.168,127.816 C242.168,127.143997 242.291998,126.540003 242.54,126.004 C242.788001,125.467997 243.139997,125.016002 243.596,124.648 C244.052002,124.279998 244.587997,123.996001 245.204,123.796 C245.820003,123.595999 246.503996,123.496 247.256,123.496 C247.960003,123.496 248.603997,123.595999 249.188,123.796 C249.772003,123.996001 250.271998,124.275998 250.688,124.636 C251.104002,124.996002 251.427999,125.439997 251.66,125.968 C251.892001,126.496003 252.008,127.079997 252.008,127.72 C252.008,128.424004 251.820002,129.043997 251.444,129.58 C251.067998,130.116003 250.608002,130.559998 250.064,130.912 L250.064,131.008 C250.816003,131.408002 251.439997,131.923997 251.936,132.556 C252.432002,133.188003 252.68,134.007995 252.68,135.016 C252.68,135.624003 252.548001,136.187997 252.284,136.708 C252.019998,137.228003 251.644002,137.679998 251.156,138.064 C250.667997,138.448002 250.080003,138.747999 249.392,138.964 C248.703996,139.180001 247.944004,139.288 247.112,139.288 Z M248.024,129.928 C248.472002,129.287997 248.696,128.648003 248.696,128.008 C248.696,127.479997 248.560001,127.068001 248.288,126.772 C248.015998,126.475999 247.640002,126.328 247.16,126.328 C246.791998,126.328 246.468001,126.443999 246.188,126.676 C245.907998,126.908001 245.768,127.287997 245.768,127.816 C245.768,128.328003 245.963998,128.735998 246.356,129.04 C246.748002,129.344002 247.303996,129.639999 248.024,129.928 Z M247.208,136.456 C247.672002,136.456 248.063998,136.336001 248.384,136.096 C248.704001,135.855999 248.864,135.448003 248.864,134.872 C248.864,134.599999 248.8,134.360001 248.672,134.152 C248.543999,133.943999 248.356001,133.756001 248.108,133.588 C247.859998,133.419999 247.560001,133.256001 247.208,133.096 C246.855998,132.935999 246.456002,132.760001 246.008,132.568 C245.783999,132.840001 245.596,133.155998 245.444,133.516 C245.291999,133.876002 245.216,134.247998 245.216,134.632 C245.216,135.240003 245.415998,135.695998 245.816,136 C246.216002,136.304002 246.679997,136.456 247.208,136.456 Z" id="2018" fill="#FFFFFF"></path>
        </g>
    </g>
</svg>
